<svg width="24" height="24" viewBox="0 0 24 24" fill="none" xmlns="http://www.w3.org/2000/svg">
<g clip-path="url(#clip0_23_1498)">
<path d="M17.6 5H9.2C8.43 5 7.8 5.63 7.8 6.4V14.8C7.8 15.57 8.43 16.2 9.2 16.2H17.6C18.37 16.2 19 15.57 19 14.8V6.4C19 5.63 18.37 5 17.6 5ZM12.329 13.4L9.9 10.95L10.88 9.963L12.329 11.419L15.92 7.8L16.9 8.787L12.329 13.4ZM6.4 7.8H5V17.6C5 18.37 5.63 19 6.4 19H16.2V17.6H6.4V7.8Z" fill="#353535"/>
</g>
<defs>
<clipPath id="clip0_23_1498">
<rect width="24" height="24" fill="white"/>
</clipPath>
</defs>
</svg>
