<svg width="24" height="24" viewBox="0 0 24 24" fill="none" xmlns="http://www.w3.org/2000/svg">
<g clip-path="url(#clip0_7407_203)">
<path d="M12.25 9.5C12.9375 9.5 13.5 8.9375 13.5 8.25C13.5 7.5625 12.9375 7 12.25 7C11.5625 7 11 7.5625 11 8.25C11 8.9375 11.5625 9.5 12.25 9.5ZM12.25 10.75C11.5625 10.75 11 11.3125 11 12C11 12.6875 11.5625 13.25 12.25 13.25C12.9375 13.25 13.5 12.6875 13.5 12C13.5 11.3125 12.9375 10.75 12.25 10.75ZM12.25 14.5C11.5625 14.5 11 15.0625 11 15.75C11 16.4375 11.5625 17 12.25 17C12.9375 17 13.5 16.4375 13.5 15.75C13.5 15.0625 12.9375 14.5 12.25 14.5Z" fill="#AEAEAE"/>
</g>
<defs>
<clipPath id="clip0_7407_203">
<rect width="24" height="24" fill="white"/>
</clipPath>
</defs>
</svg>
